<svg width="290" height="289" xmlns="http://www.w3.org/2000/svg" xmlns:xlink="http://www.w3.org/1999/xlink" overflow="hidden"><defs><clipPath id="clip0"><rect x="351" y="338" width="290" height="289"/></clipPath></defs><g clip-path="url(#clip0)" transform="translate(-351 -338)"><path d="M575.74 366.26C575.186 369.883 574.313 377.555 573.183 385.919L572.1 393.212 579.857 400.286C619.22 439.684 626.614 501.706 596.249 549.566 565.885 597.426 506.622 617.158 454.209 598.328L415.141 609.717 420.256 594.373C430.186 568.586 440.117 542.8 451.455 522.256 462.792 501.713 474.13 487.051 488.28 471.11 502.431 455.169 523.742 439.57 536.358 426.613 548.974 413.656 557.413 403.426 563.977 393.368 570.54 383.309 575.74 366.26 575.74 366.26Z" fill="#FFC000" fill-rule="evenodd"/></g></svg>