<svg width="990" height="990" xmlns="http://www.w3.org/2000/svg" xmlns:xlink="http://www.w3.org/1999/xlink" overflow="hidden"><defs><clipPath id="clip0"><rect x="2418" y="462" width="990" height="990"/></clipPath></defs><g clip-path="url(#clip0)" transform="translate(-2418 -462)"><path d="M2599.72 1237.57 2599.82 1237.69C2590.67 1245.75 2594.89 1241.94 2599.11 1238.12ZM2603.77 1233.88 2599.72 1237.57 2599.64 1237.46 2602.96 1234.55C2603.79 1233.83 2603.99 1233.67 2603.77 1233.88ZM2891.67 552.569C2964.74 549.583 3038.93 565.911 3106.13 602.604L3137.51 621.682 3141.89 615.967C3154.84 596.847 3167.59 572.617 3173.08 564.046 3173.08 564.046 3160.48 608.293 3144.95 632.615 3129.42 656.936 3109.5 681.55 3079.9 709.974 3050.3 738.397 3005.76 771.509 2967.38 803.156 2967.38 803.156 2883.57 864.984 2849.58 899.854 2815.59 934.724 2789.22 966.371 2763.43 1012.38 2737.65 1058.38 2716.25 1117.13 2694.86 1175.88L2677.28 1230.39C2677.28 1230.39 2679.04 1116.99 2682.56 1070.4 2686.07 1023.8 2695.74 970.766 2698.38 950.841L2710.69 1015.89C2710.69 1015.89 2718.31 961.39 2728.27 940.292 2738.23 919.194 2757.28 910.403 2770.46 889.305 2783.65 868.207 2801.23 826.305 2807.39 813.705L2805.63 866.449C2805.63 866.449 2820.57 812.24 2837.27 790.849 2853.98 769.458 2882.4 752.169 2905.84 738.104 2929.28 724.039 2949.8 717.592 2977.93 706.457 3006.06 695.322 3049.43 683.601 3074.63 671.294L3076.67 670.236 3071.11 666.856C2932.86 591.367 2758.65 620.626 2652.89 741.094 2547.13 861.563 2493.67 1079.86 2580.54 1212.38L2599.64 1237.46 2598.4 1238.55C2461.02 1082.65 2460.81 848.974 2597.9 692.819 2675.01 604.982 2782.07 557.048 2891.67 552.569Z" fill="#814EE7" fill-rule="evenodd"/><path d="M2733.33 1339.65 2733.34 1339.66 2732.11 1342.29C2731.63 1343.32 2731.49 1343.6 2731.59 1343.39ZM2736.45 1332.98C2736.25 1333.39 2735.14 1335.79 2734.02 1338.19L2733.33 1339.65 2733.32 1339.65C2735.9 1334.12 2736.64 1332.56 2736.45 1332.98ZM3186.77 556.634C3184.86 569.087 3181.86 595.46 3177.98 624.213L3174.25 649.28 3200.92 673.599C3336.23 809.028 3361.65 1022.23 3257.27 1186.75 3152.89 1351.27 2949.17 1419.09 2769 1354.37L2733.34 1339.66 2734.71 1336.72C2889.62 1409.19 3103.86 1291.96 3195.48 1147.55 3275.65 1021.19 3262.77 859.937 3170.17 748.389L3155.58 733.797 3145.01 768.931C3137.9 788.417 3130.07 805.999 3121.71 820.357 3105.01 849.073 3063.7 878.376 3063.7 878.376L3109.41 869.586C3102.08 879.548 3083.33 911.195 3065.45 929.362 3047.58 947.53 3030.58 965.698 3002.16 978.591 2973.74 991.484 2894.91 1006.72 2894.91 1006.72 2906.63 1006.14 2944.14 1006.72 2965.24 1003.21 2986.34 999.689 3021.5 985.624 3021.5 985.624 3012.42 994.708 2983.11 1020.49 2967 1040.13 2950.88 1059.76 2941.5 1083.79 2924.8 1103.42 2908.1 1123.05 2887.59 1144.44 2866.78 1157.92 2845.98 1171.4 2824.88 1173.16 2799.97 1184.3 2775.07 1195.43 2734.63 1203.93 2717.34 1224.73 2700.05 1245.54 2699.46 1288.61 2696.24 1309.12 2693.02 1329.64 2698 1347.8 2698 1347.8L2634.71 1393.52 2652.29 1340.77C2686.42 1252.13 2720.56 1163.49 2759.54 1092.87 2798.51 1022.25 2837.48 971.851 2886.12 917.055 2934.76 862.259 3008.02 808.636 3051.39 764.096 3094.76 719.556 3123.77 684.393 3146.33 649.816 3168.89 615.239 3186.77 556.634 3186.77 556.634Z" fill="#E7A800" fill-rule="evenodd"/></g></svg>