<svg width="990" height="990" xmlns="http://www.w3.org/2000/svg" xmlns:xlink="http://www.w3.org/1999/xlink" overflow="hidden"><defs><clipPath id="clip0"><rect x="1877" y="551" width="990" height="990"/></clipPath></defs><g clip-path="url(#clip0)" transform="translate(-1877 -551)"><path d="M2059.34 1327.07 2059.43 1327.2C2050.28 1335.26 2054.5 1331.45 2058.72 1327.63ZM2063.38 1323.39 2059.34 1327.07 2059.26 1326.97 2062.58 1324.05C2063.4 1323.34 2063.6 1323.18 2063.38 1323.39ZM2351.29 642.075C2424.35 639.089 2498.54 655.417 2565.74 692.111L2597.12 711.189 2601.51 705.474C2614.46 686.354 2627.2 662.124 2632.7 653.553 2632.7 653.553 2620.1 697.8 2604.57 722.121 2589.04 746.442 2569.11 771.056 2539.52 799.48 2509.92 827.904 2465.38 861.015 2426.99 892.662 2426.99 892.662 2343.19 954.491 2309.2 989.361 2275.21 1024.23 2248.83 1055.88 2223.05 1101.88 2197.26 1147.89 2175.87 1206.64 2154.48 1265.39L2136.9 1319.89C2136.9 1319.89 2138.66 1206.49 2142.17 1159.9 2145.69 1113.31 2155.36 1060.27 2158 1040.35L2170.3 1105.4C2170.3 1105.4 2177.92 1050.9 2187.89 1029.8 2197.85 1008.7 2216.9 999.91 2230.08 978.812 2243.27 957.714 2260.85 915.811 2267 903.211L2265.24 955.956C2265.24 955.956 2280.19 901.746 2296.89 880.355 2313.59 858.964 2342.02 841.676 2365.46 827.61 2388.9 813.545 2409.41 807.099 2437.54 795.964 2465.67 784.829 2509.04 773.108 2534.24 760.801L2536.28 759.743 2530.72 756.363C2392.48 680.874 2218.27 710.132 2112.51 830.601 2006.74 951.069 1953.28 1169.36 2040.16 1301.89L2059.26 1326.97 2058.01 1328.06C1920.64 1172.15 1920.43 938.48 2057.52 782.326 2134.63 694.489 2241.69 646.554 2351.29 642.075Z" fill="#9966FF" fill-rule="evenodd"/><path d="M2192.95 1429.16 2192.96 1429.16 2191.73 1431.79C2191.25 1432.82 2191.11 1433.11 2191.21 1432.9ZM2196.06 1422.48C2195.87 1422.9 2194.75 1425.3 2193.63 1427.69L2192.95 1429.16 2192.94 1429.15C2195.52 1423.63 2196.25 1422.07 2196.06 1422.48ZM2646.38 646.14C2644.48 658.594 2641.48 684.966 2637.59 713.719L2633.87 738.786 2660.54 763.106C2795.84 898.535 2821.26 1111.74 2716.88 1276.25 2612.5 1440.77 2408.79 1508.6 2228.62 1443.88L2192.96 1429.16 2194.33 1426.23C2349.24 1498.7 2563.48 1381.46 2655.1 1237.05 2735.26 1110.7 2722.39 949.443 2629.79 837.896L2615.19 823.304 2604.63 858.437C2597.52 877.923 2589.68 895.505 2581.33 909.863 2564.63 938.58 2523.31 967.882 2523.31 967.882L2569.02 959.092C2561.7 969.055 2542.95 1000.7 2525.07 1018.87 2507.2 1037.04 2490.2 1055.2 2461.78 1068.1 2433.35 1080.99 2354.53 1096.23 2354.53 1096.23 2366.25 1095.64 2403.76 1096.23 2424.86 1092.71 2445.95 1089.2 2481.12 1075.13 2481.12 1075.13 2472.03 1084.21 2442.73 1110 2426.61 1129.63 2410.5 1149.27 2401.12 1173.29 2384.42 1192.93 2367.72 1212.56 2347.2 1233.95 2326.4 1247.43 2305.59 1260.91 2284.5 1262.67 2259.59 1273.8 2234.68 1284.94 2194.24 1293.43 2176.96 1314.24 2159.67 1335.04 2159.08 1378.12 2155.86 1398.63 2152.63 1419.14 2157.62 1437.31 2157.62 1437.31L2094.32 1483.02 2111.9 1430.28C2146.04 1341.64 2180.18 1253 2219.15 1182.38 2258.12 1111.76 2297.1 1061.36 2345.74 1006.56 2394.38 951.766 2467.64 898.142 2511.01 853.602 2554.37 809.062 2583.38 773.899 2605.95 739.322 2628.51 704.745 2646.38 646.14 2646.38 646.14Z" fill="#FFC000" fill-rule="evenodd"/></g></svg>