<svg width="290" height="289" xmlns="http://www.w3.org/2000/svg" xmlns:xlink="http://www.w3.org/1999/xlink" overflow="hidden"><defs><clipPath id="clip0"><rect x="351" y="338" width="290" height="289"/></clipPath></defs><g clip-path="url(#clip0)" transform="translate(-351 -338)"><path d="M404.963 564.349 404.991 564.386C402.329 566.732 403.557 565.621 404.785 564.511L404.963 564.349ZM404.94 564.319 404.963 564.349 404.94 564.319ZM489.894 365.078C511.15 364.209 532.733 368.959 552.281 379.633L561.411 385.183 562.685 383.521C566.453 377.959 570.161 370.91 571.759 368.416 571.759 368.416 568.094 381.288 563.576 388.364 559.058 395.439 553.262 402.599 544.652 410.868 536.042 419.137 523.085 428.769 511.918 437.975 511.918 437.975 487.539 455.962 477.65 466.106 467.762 476.25 460.09 485.456 452.588 498.84 445.087 512.223 438.864 529.314 432.641 546.406L427.527 562.261C422.91 565.247 408.765 563.923 404.94 564.319L404.578 564.636C364.615 519.282 364.553 451.304 404.434 405.878 426.867 380.325 458.012 366.38 489.894 365.078Z" fill="#9966FF" fill-rule="evenodd"/></g></svg>