<svg width="990" height="990" xmlns="http://www.w3.org/2000/svg" xmlns:xlink="http://www.w3.org/1999/xlink" overflow="hidden"><defs><clipPath id="clip0"><rect x="1762" y="407" width="990" height="990"/></clipPath></defs><g clip-path="url(#clip0)" transform="translate(-1762 -407)"><path d="M1944.01 1182.87 1944.1 1183C1934.95 1191.06 1939.17 1187.25 1943.39 1183.43ZM1948.05 1179.19 1944.01 1182.87 1943.93 1182.77 1947.25 1179.85C1948.08 1179.14 1948.27 1178.98 1948.05 1179.19ZM2235.96 497.875C2309.02 494.889 2383.22 511.217 2450.42 547.911L2481.8 566.989 2486.18 561.274C2499.13 542.154 2511.88 517.924 2517.37 509.353 2517.37 509.353 2504.77 553.6 2489.24 577.921 2473.71 602.242 2453.78 626.857 2424.19 655.28 2394.59 683.704 2350.05 716.815 2311.67 748.462 2311.67 748.462 2227.86 810.291 2193.87 845.161 2159.88 880.031 2133.51 911.677 2107.72 957.683 2081.93 1003.69 2060.54 1062.44 2039.15 1121.19L2021.57 1175.69C2021.57 1175.69 2023.33 1062.29 2026.85 1015.7 2030.36 969.11 2040.03 916.073 2042.67 896.147L2054.98 961.199C2054.98 961.199 2062.59 906.696 2072.56 885.598 2082.52 864.5 2101.57 855.71 2114.75 834.612 2127.94 813.514 2145.52 771.611 2151.67 759.011L2149.92 811.756C2149.92 811.756 2164.86 757.546 2181.56 736.155 2198.27 714.764 2226.69 697.476 2250.13 683.41 2273.57 669.345 2294.08 662.899 2322.22 651.764 2350.35 640.629 2393.71 628.908 2418.91 616.601L2420.96 615.543 2415.4 612.163C2277.15 536.674 2102.94 565.932 1997.18 686.401 1891.42 806.869 1837.95 1025.16 1924.83 1157.69L1943.93 1182.77 1942.69 1183.86C1805.31 1027.95 1805.1 794.28 1942.19 638.126 2019.3 550.289 2126.36 502.354 2235.96 497.875Z" fill="#9966FF" fill-rule="evenodd"/></g></svg>